<svg xmlns="http://www.w3.org/2000/svg" viewBox="0 0 64 64" aria-labelledby="title"
aria-describedby="desc" role="img" xmlns:xlink="http://www.w3.org/1999/xlink">
  <title>Home Page</title>
  <desc>A color styled icon from Orion Icon Library.</desc>
  <path data-name="layer4"
  fill="#a6b1c9" d="M2 6h52v12H2z"></path>
  <circle data-name="layer3" cx="8" cy="12" r="1" fill="#f27e7c"></circle>
  <circle data-name="layer3" cx="15" cy="12" r="1" fill="#f27e7c"></circle>
  <circle data-name="layer3" cx="22" cy="12" r="1" fill="#f27e7c"></circle>
  <path data-name="layer2" fill="#fff" d="M2 18v32h32l20-16V18H2z"></path>
  <path data-name="opacity" fill="#000064" opacity=".15" d="M2 18h4v32H2zM2 6h4v12H2zm26 34v10h6V38l8-8-2-2-12 12z"></path>
  <path data-name="layer1" fill="#c3d6f9" d="M58 38v20H34V38l12-12 12 12z"></path>
  <path data-name="opacity" fill="#000064" opacity=".15" d="M42 46h8v12h-8z"></path>
  <path data-name="stroke" fill="none" stroke="#2e4369" stroke-linecap="round"
  stroke-linejoin="round" stroke-width="2" d="M30 42l16-16 16 16"></path>
  <path data-name="stroke" fill="none" stroke="#2e4369" stroke-linecap="round"
  stroke-linejoin="round" stroke-width="2" d="M34 38.2V58h24V38.1"></path>
  <path data-name="stroke" fill="none" stroke="#2e4369" stroke-linecap="round"
  stroke-linejoin="round" stroke-width="2" d="M42 58V46h8"></path>
  <circle data-name="stroke" cx="8" cy="12" r="1" fill="none" stroke="#2e4369"
  stroke-linecap="round" stroke-linejoin="round" stroke-width="2"></circle>
  <circle data-name="stroke" cx="15" cy="12" r="1" fill="none"
  stroke="#2e4369" stroke-linecap="round" stroke-linejoin="round" stroke-width="2"></circle>
  <circle data-name="stroke" cx="22" cy="12" r="1" fill="none"
  stroke="#2e4369" stroke-linecap="round" stroke-linejoin="round" stroke-width="2"></circle>
  <path data-name="stroke" fill="none" stroke="#2e4369" stroke-linecap="round"
  stroke-linejoin="round" stroke-width="2" d="M2 6h52v12H2zm52 28V18H2v32h32"></path>
</svg>